<svg width="45" height="56" viewBox="0 0 45 56" fill="none" xmlns="http://www.w3.org/2000/svg">
<path d="M17.7037 16.5532C15.9352 16.5532 14.2391 17.2558 12.9885 18.5063C11.738 19.7568 11.0355 21.4529 11.0355 23.2214C11.0355 25.6299 12.9915 27.5887 15.4028 27.5887H28.7391C31.1476 27.5887 33.1064 25.6327 33.1064 23.2214C33.1064 21.4529 32.4039 19.7568 31.1534 18.5063C29.9028 17.2558 28.2068 16.5532 26.4383 16.5532H17.7037ZM15.1738 23.2214C15.1738 21.8227 16.3049 20.6915 17.7037 20.6915H26.4383C27.837 20.6915 28.9681 21.8227 28.9681 23.2214C28.9681 23.2821 28.944 23.3404 28.9011 23.3833C28.8581 23.4263 28.7999 23.4504 28.7391 23.4504H15.4028C15.342 23.4504 15.2838 23.4263 15.2409 23.3833C15.1979 23.3404 15.1738 23.2821 15.1738 23.2214ZM22.071 1.42934e-08C19.4827 -0.000135961 16.9884 0.969893 15.0803 2.71866C13.1721 4.46743 11.9888 6.8679 11.7638 9.44637C8.21213 11.3218 5.2396 14.1309 3.16659 17.571C1.09359 21.0111 -0.00127629 24.9517 1.11651e-06 28.9681V46.2111C1.11651e-06 47.3885 0.231923 48.5545 0.682523 49.6423C1.13312 50.7302 1.79358 51.7186 2.62618 52.5512C3.45878 53.3838 4.44722 54.0443 5.53506 54.4949C6.62291 54.9455 7.78885 55.1774 8.96633 55.1774H35.1756C36.3531 55.1774 37.519 54.9455 38.6069 54.4949C39.6947 54.0443 40.6831 53.3838 41.5157 52.5512C42.3483 51.7186 43.0088 50.7302 43.4594 49.6423C43.91 48.5545 44.1419 47.3885 44.1419 46.2111V28.9681C44.1432 24.9517 43.0483 21.0111 40.9753 17.571C38.9023 14.1309 35.9298 11.3218 32.3781 9.44637C32.1531 6.8679 30.9698 4.46743 29.0617 2.71866C27.1535 0.969893 24.6592 -0.000135961 22.071 1.42934e-08ZM40.0036 33.1064H4.13831V28.9681C4.13831 24.2121 6.02763 19.6509 9.39066 16.2878C12.7537 12.9248 17.3149 11.0355 22.071 11.0355C26.827 11.0355 31.3882 12.9248 34.7513 16.2878C38.1143 19.6509 40.0036 24.2121 40.0036 28.9681V33.1064ZM11.0355 42.0728C11.0355 42.6215 11.2535 43.1478 11.6415 43.5359C12.0296 43.9239 12.5559 44.1419 13.1046 44.1419C13.6534 44.1419 14.1797 43.9239 14.5677 43.5359C14.9558 43.1478 15.1738 42.6215 15.1738 42.0728V37.8351H40.0036V46.2111C40.0036 47.4915 39.4949 48.7196 38.5895 49.625C37.6841 50.5304 36.4561 51.0391 35.1756 51.0391H8.96633C7.68586 51.0391 6.45783 50.5304 5.5524 49.625C4.64697 48.7196 4.13831 47.4915 4.13831 46.2111V37.8351H11.0355V42.0728ZM22.071 6.89717C20.1453 6.89717 18.2803 7.14547 16.498 7.6062C17.0093 6.5641 17.8025 5.68622 18.7876 5.07225C19.7727 4.45828 20.9102 4.13281 22.071 4.13281C23.2317 4.13281 24.3692 4.45828 25.3543 5.07225C26.3394 5.68622 27.1326 6.5641 27.6439 7.6062C25.824 7.13383 23.9512 6.89556 22.071 6.89717Z" fill="#006BB9"/>
</svg>
