<svg width="45" height="41" viewBox="0 0 45 41" fill="none" xmlns="http://www.w3.org/2000/svg">
<path d="M44.1313 36.5791H4.58752V0.463027C4.58752 0.208362 4.38061 0 4.12771 0H0.90903C0.656134 0 0.449219 0.208362 0.449219 0.463027V40.2834C0.449219 40.538 0.656134 40.7464 0.90903 40.7464H44.1313C44.3842 40.7464 44.5911 40.538 44.5911 40.2834V37.0422C44.5911 36.7875 44.3842 36.5791 44.1313 36.5791ZM10.6685 27.6485C10.8467 27.8279 11.1341 27.8279 11.318 27.6485L19.267 19.6844L26.601 27.116C26.7792 27.2954 27.0723 27.2954 27.2505 27.116L43.0795 11.1821C43.2577 11.0027 43.2577 10.7075 43.0795 10.5281L40.8034 8.23609C40.717 8.14992 40.6003 8.10158 40.4787 8.10158C40.3571 8.10158 40.2404 8.14992 40.154 8.23609L26.9344 21.5423L19.6119 14.1223C19.5254 14.0362 19.4087 13.9878 19.2871 13.9878C19.1655 13.9878 19.0488 14.0362 18.9624 14.1223L8.39821 24.6967C8.31264 24.7837 8.26464 24.9013 8.26464 25.0237C8.26464 25.1462 8.31264 25.2637 8.39821 25.3507L10.6685 27.6485Z" fill="#0071C2"/>
</svg>
