<svg width="41" height="50" viewBox="0 0 41 50" fill="none" xmlns="http://www.w3.org/2000/svg">
<path d="M5.74553 49.4079C4.27173 49.4079 2.85828 48.8224 1.81614 47.7803C0.774001 46.7382 0.188533 45.3247 0.188533 43.8509L0.183594 9.26167C0.183594 7.78786 0.769062 6.37442 1.8112 5.33228C2.85334 4.29014 4.26678 3.70467 5.74059 3.70467L7.58552 3.7022L7.58799 1.85233C7.58801 1.40472 7.75011 0.972249 8.04432 0.634906C8.33853 0.297562 8.74494 0.0781658 9.1884 0.0172899L9.44032 1.54529e-06C9.88794 2.04215e-05 10.3204 0.162124 10.6577 0.456335C10.9951 0.750546 11.2145 1.15696 11.2754 1.60042L11.2927 1.85233V3.7022H18.702V1.85233C18.7022 1.40398 18.865 0.9709 19.1602 0.633447C19.4554 0.295994 19.863 0.0770711 20.3073 0.0172899L20.5543 1.54529e-06C21.0024 -0.000576898 21.4354 0.161258 21.7733 0.455523C22.1111 0.749788 22.3309 1.15654 22.3918 1.60042L22.4091 1.85233V3.7022H29.811L29.8135 1.85233C29.8135 1.40472 29.9756 0.972249 30.2698 0.634906C30.5641 0.297562 30.9705 0.0781658 31.4139 0.0172899L31.6683 1.54529e-06C32.1159 2.04215e-05 32.5484 0.162124 32.8857 0.456335C33.2231 0.750546 33.4425 1.15696 33.5034 1.60042L33.5207 1.85233V3.7022H35.3705C36.8443 3.7022 38.2578 4.28767 39.2999 5.3298C40.342 6.37194 40.9275 7.78539 40.9275 9.2592L40.93 36.4267C40.93 36.5749 40.9127 36.7231 40.8806 36.8614L40.8065 37.0936L40.6954 37.3307L40.646 37.4097C40.5734 37.5295 40.4863 37.6399 40.3866 37.7382L29.2628 48.8645C29.1974 48.9299 29.1273 48.9901 29.0528 49.0448L29.2628 48.8645C29.1831 48.944 29.0963 49.0159 29.0034 49.0794L28.7861 49.2078L28.4996 49.3239L28.218 49.3881L28.0871 49.403L27.9513 49.4079H5.74553ZM35.368 7.40933H5.7159C5.22892 7.41583 4.76409 7.61385 4.42203 7.96053C4.07998 8.3072 3.88822 8.77465 3.88826 9.26167L3.8932 43.8484C3.8932 44.8734 4.72305 45.7008 5.74553 45.7008H26.0965L26.099 40.1339C26.0988 38.7258 26.6332 37.3702 27.5941 36.3409C28.555 35.3117 29.8708 34.6856 31.2756 34.5892L31.656 34.5769H37.2253V9.26167C37.2253 8.7704 37.0302 8.29925 36.6828 7.95187C36.3354 7.60449 35.8643 7.40933 35.373 7.40933H35.368ZM34.6024 38.2816H31.656C31.2084 38.2816 30.7759 38.4437 30.4385 38.7379C30.1012 39.0321 29.8818 39.4385 29.8209 39.882L29.8036 40.1339V43.0828L34.6024 38.2816ZM9.44032 34.5769H19.3145C19.7838 34.577 20.2356 34.7553 20.5785 35.0757C20.9214 35.3961 21.13 35.8347 21.1619 36.303C21.1939 36.7712 21.047 37.2341 20.7508 37.5982C20.4547 37.9622 20.0313 38.2003 19.5664 38.2643L19.3145 38.2816H9.44032C8.971 38.2814 8.51924 38.1031 8.17631 37.7827C7.83338 37.4623 7.62485 37.0237 7.59286 36.5555C7.56087 36.0873 7.70781 35.6243 8.00398 35.2603C8.30015 34.8962 8.72347 34.6581 9.1884 34.5942L9.44032 34.5769H19.3145H9.44032ZM9.44032 24.6978H31.6634C32.1327 24.6979 32.5845 24.8762 32.9274 25.1966C33.2703 25.517 33.4788 25.9556 33.5108 26.4239C33.5428 26.8921 33.3959 27.355 33.0997 27.7191C32.8036 28.0831 32.3802 28.3212 31.9153 28.3852L31.6634 28.4024H9.44032C8.971 28.4023 8.51924 28.224 8.17631 27.9036C7.83338 27.5832 7.62485 27.1446 7.59286 26.6764C7.56087 26.2081 7.70781 25.7452 8.00398 25.3812C8.30015 25.0171 8.72347 24.779 9.1884 24.7151L9.44032 24.6978H31.6634H9.44032ZM9.44032 14.8187H31.6634C32.1327 14.8188 32.5845 14.9971 32.9274 15.3175C33.2703 15.6379 33.4788 16.0765 33.5108 16.5447C33.5428 17.013 33.3959 17.4759 33.0997 17.8399C32.8036 18.204 32.3802 18.4421 31.9153 18.506L31.6634 18.5233H9.44032C8.971 18.5232 8.51924 18.3449 8.17631 18.0245C7.83338 17.7041 7.62485 17.2655 7.59286 16.7973C7.56087 16.329 7.70781 15.8661 8.00398 15.5021C8.30015 15.138 8.72347 14.8999 9.1884 14.836L9.44032 14.8187H31.6634H9.44032Z" fill="#006BB9"/>
</svg>
